<?xml version="1.0" encoding="UTF-8"?><svg id="Layer_2" xmlns="http://www.w3.org/2000/svg" viewBox="0 0 209.92 64"><defs><style>.cls-1{fill:#fff;}</style></defs><g id="Layer_1-2"><g><g><path class="cls-1" d="M76.42,14.1l-11.82,26.27h4.15l2.14-5.05,5.46-12.72,5.46,12.72,2.14,5.05h4.22l-11.75-26.27Z"/><path class="cls-1" d="M102.62,32.15c0,.97-.14,1.94-.55,2.77-.35,.69-.9,1.31-1.59,1.66-.76,.41-1.59,.55-2.42,.55-.55,0-1.04-.07-1.59-.21-.48-.21-.97-.48-1.31-.9-.76-.97-1.11-2.14-1.04-3.39v-8.99h-3.87v9.54c-.07,1.45,.28,2.83,.9,4.15,.55,1.04,1.45,1.94,2.56,2.42,1.18,.55,2.42,.83,3.73,.83,1.24,0,2.49-.28,3.53-.83,.69-.35,1.31-.9,1.8-1.52v2.14h3.73V23.71h-3.87v8.43Z"/><path class="cls-1" d="M115.34,26.13v-2.42h-3.73v16.66h3.87v-8.09c-.07-.69,.07-1.38,.28-2.07,.21-.69,.55-1.24,1.04-1.8,.48-.41,1.04-.76,1.66-1.04,.62-.21,1.24-.35,1.87-.28h.41c.14,0,.35,.07,.48,.07v-3.73c-1.38-.07-2.77,.28-4.01,.9-.76,.48-1.38,1.11-1.87,1.8Z"/><path class="cls-1" d="M135.32,25.23c-1.59-1.24-3.59-1.87-5.6-1.73-1.31,0-2.63,.14-3.87,.48-1.18,.28-2.21,.83-3.18,1.52l1.52,2.83c.69-.55,1.45-.97,2.28-1.24,.9-.28,1.8-.41,2.77-.41,1.11-.07,2.21,.28,3.11,.97,.35,.35,.62,.76,.83,1.24s.28,.97,.21,1.45v.28h-4.29c-1.38-.07-2.77,.14-4.08,.62-.9,.35-1.66,.97-2.21,1.8-.48,.76-.69,1.66-.69,2.56s.28,1.8,.76,2.56c.55,.76,1.31,1.38,2.14,1.8,1.04,.41,2.14,.69,3.25,.62,1.24,.07,2.56-.21,3.66-.83,.62-.35,1.18-.83,1.59-1.45v2.07h3.66v-9.75c.14-2.42-.55-4.22-1.87-5.39Zm-3.53,11.89c-.76,.41-1.66,.69-2.56,.62-.83,.07-1.66-.14-2.35-.62-.28-.21-.48-.41-.62-.76-.14-.28-.21-.62-.21-.97,0-.28,.07-.62,.14-.83,.14-.28,.28-.48,.48-.69,.76-.55,1.73-.76,2.7-.62h4.01v1.94c-.28,.76-.83,1.45-1.59,1.94h0Z"/><path class="cls-1" d="M156.62,19.5c-1.59-.69-3.25-.97-4.98-.97h-8.99v21.85h4.08v-6.29h4.91c1.73,.07,3.39-.28,4.98-.97,1.31-.55,2.42-1.52,3.18-2.7,.76-1.24,1.11-2.7,1.11-4.15s-.41-2.9-1.11-4.15c-.76-1.18-1.87-2.07-3.18-2.63Zm-1.11,10.02c-1.18,.83-2.63,1.24-4.01,1.11h-4.77v-8.64h4.77c1.45-.14,2.83,.28,4.01,1.11,.41,.41,.76,.9,1.04,1.45,.21,.55,.35,1.18,.35,1.73s-.14,1.18-.35,1.73c-.28,.55-.62,1.11-1.04,1.52h0Z"/><path class="cls-1" d="M176.67,24.61c-1.38-.76-2.97-1.11-4.63-1.11s-3.18,.35-4.56,1.11c-1.31,.69-2.42,1.73-3.18,3.04s-1.18,2.83-1.18,4.42,.41,3.04,1.18,4.42c.76,1.24,1.87,2.35,3.18,3.04,1.38,.76,2.97,1.11,4.56,1.11s3.18-.35,4.63-1.11c1.31-.69,2.42-1.73,3.18-3.04,.76-1.38,1.11-2.9,1.11-4.42s-.41-3.04-1.11-4.42c-.76-1.31-1.87-2.35-3.18-3.04Zm-.28,10.23c-.41,.76-1.04,1.38-1.73,1.8-.76,.41-1.66,.62-2.56,.62s-1.73-.21-2.49-.62c-.76-.41-1.38-1.04-1.8-1.8-.41-.9-.62-1.8-.62-2.77s.21-1.94,.62-2.77c.41-.76,1.04-1.38,1.8-1.8,.76-.41,1.66-.62,2.56-.62s1.73,.21,2.56,.62c.76,.41,1.38,1.04,1.8,1.8,.41,.9,.62,1.8,.62,2.77-.14,.9-.35,1.87-.76,2.77h0Z"/><path class="cls-1" d="M196.78,24.61c-1.38-.76-2.97-1.11-4.63-1.11s-3.18,.35-4.56,1.11c-1.31,.69-2.42,1.73-3.18,3.04-.76,1.31-1.18,2.83-1.18,4.42s.41,3.04,1.18,4.42c.76,1.24,1.87,2.35,3.18,3.04,1.38,.76,2.97,1.11,4.56,1.11s3.18-.35,4.63-1.11c1.31-.69,2.42-1.73,3.18-3.04,.76-1.38,1.11-2.9,1.11-4.42s-.41-3.04-1.11-4.42c-.76-1.31-1.87-2.35-3.18-3.04Zm-.28,10.23c-.41,.76-1.04,1.38-1.73,1.8-.76,.41-1.66,.62-2.56,.62s-1.73-.21-2.49-.62c-.76-.41-1.38-1.04-1.73-1.8-.41-.9-.62-1.8-.62-2.77s.21-1.94,.62-2.77c.41-.76,1.04-1.38,1.8-1.8s1.66-.62,2.56-.62,1.73,.21,2.56,.62c.76,.41,1.38,1.04,1.8,1.8,.41,.9,.62,1.8,.62,2.77s-.41,1.87-.83,2.77h0Z"/><path class="cls-1" d="M208.74,17.21h-3.87v23.16h3.87V17.21Z"/><path class="cls-1" d="M29.48,8.16c-4.22,0-8.37,1.24-11.82,3.59-3.53,2.35-6.22,5.67-7.88,9.54-1.59,3.87-2,8.16-1.24,12.31,.83,4.15,2.83,7.95,5.81,10.92,2.97,2.97,6.78,4.98,10.92,5.81s8.43,.41,12.31-1.24c3.87-1.59,7.19-4.36,9.54-7.88,2.35-3.53,3.59-7.6,3.59-11.82,0-5.67-2.28-11.06-6.22-15.07-3.94-3.94-9.33-6.15-15-6.15Zm0,39.06c-3.53,0-6.98-1.04-9.89-2.97-2.9-1.94-5.18-4.7-6.57-7.95-1.31-3.25-1.73-6.84-1.04-10.3s2.35-6.64,4.84-9.13c2.49-2.49,5.67-4.15,9.13-4.84,3.46-.69,7.05-.35,10.3,1.04,3.25,1.31,6.01,3.59,7.95,6.57,1.94,2.9,2.97,6.36,2.97,9.89,0,4.7-1.87,9.26-5.18,12.58-3.25,3.25-7.81,5.12-12.51,5.12Z"/><path class="cls-1" d="M29.48,55.03c-5.05,0-10.02-1.52-14.24-4.29-4.22-2.83-7.47-6.84-9.4-11.48-1.94-4.7-2.42-9.82-1.45-14.79s3.46-9.54,6.98-13.14c3.59-3.59,8.16-6.01,13.14-6.98,4.98-.97,10.09-.48,14.79,1.45s8.71,5.25,11.48,9.4c2.83,4.22,4.29,9.19,4.29,14.24,0,6.78-2.7,13.27-7.54,18.11-4.7,4.77-11.27,7.47-18.04,7.47Zm0-50.19c-4.84,0-9.61,1.45-13.69,4.15-4.08,2.7-7.19,6.57-9.06,11.06-1.87,4.49-2.35,9.47-1.38,14.24,.97,4.77,3.32,9.13,6.71,12.58,3.46,3.46,7.81,5.81,12.58,6.71,4.77,.97,9.75,.48,14.24-1.38,4.49-1.87,8.37-5.05,11.06-9.06,2.7-4.08,4.15-8.78,4.15-13.69,0-6.5-2.63-12.79-7.19-17.42-4.63-4.56-10.85-7.19-17.42-7.19Z"/><path class="cls-1" d="M29.48,58.9c-5.81,0-11.55-1.73-16.38-4.98s-8.64-7.81-10.85-13.2C.03,35.33-.59,29.38,.58,23.71c1.11-5.74,3.94-10.99,8.09-15.07C12.82,4.49,18.07,1.73,23.74,.55,29.48-.55,35.36,0,40.75,2.21c5.39,2.21,10.02,6.01,13.2,10.85,3.25,4.84,4.98,10.58,4.98,16.38,0,7.81-3.11,15.35-8.64,20.81-5.46,5.53-13,8.64-20.81,8.64ZM29.48,.28c-5.74,0-11.41,1.73-16.18,4.91S4.8,12.93,2.59,18.25C.38,23.57-.18,29.45,.93,35.12c1.11,5.67,3.87,10.85,7.95,14.93,4.08,4.08,9.26,6.84,14.93,7.95,5.67,1.11,11.55,.55,16.87-1.66,5.32-2.21,9.89-5.95,13.07-10.72,3.18-4.77,4.91-10.44,4.91-16.18,0-7.74-3.11-15.14-8.57-20.6C44.62,3.39,37.22,.28,29.48,.28h0Z"/><path class="cls-1" d="M29.48,16.25l-10.51,23.3h3.73l1.94-4.49,4.84-11.27,4.84,11.27,1.94,4.49h3.73l-10.51-23.3Z"/></g><g><path class="cls-1" d="M94.23,54.35c0,1.36-1.01,2.38-2.4,2.38h-2.04v2.94h-.58v-7.72h2.62c1.39,0,2.4,1.03,2.4,2.39Zm-.58,0c0-1.07-.76-1.84-1.82-1.84h-2.04v3.67h2.04c1.06,0,1.82-.77,1.82-1.83Z"/><path class="cls-1" d="M94.75,56.92c0-1.63,1.29-2.88,2.9-2.88s2.89,1.25,2.89,2.88-1.29,2.88-2.89,2.88-2.9-1.25-2.9-2.88Zm5.23,0c0-1.31-1.01-2.35-2.33-2.35s-2.34,1.04-2.34,2.35,1.03,2.35,2.34,2.35,2.33-1.04,2.33-2.35Z"/><path class="cls-1" d="M108.91,54.17l-1.74,5.51h-.61l-1.53-4.7-1.53,4.7h-.61l-1.74-5.51h.58l1.47,4.8,1.54-4.8h.57l1.54,4.8,1.47-4.8h.58Z"/><path class="cls-1" d="M115.1,56.94c0,.09-.01,.18-.01,.26h-4.99c.13,1.25,1.08,2.06,2.34,2.06,.9,0,1.59-.42,1.91-1l.49,.29c-.45,.75-1.31,1.25-2.4,1.25-1.7,0-2.9-1.21-2.9-2.88s1.17-2.88,2.86-2.88,2.72,1.39,2.72,2.9Zm-5-.28h4.43c-.12-1.34-1.07-2.09-2.15-2.09-1.26,0-2.17,.87-2.28,2.09Z"/><path class="cls-1" d="M118.78,54.09v.53c-.95,0-1.84,.58-1.84,2v3.06h-.55v-5.51h.55v1.08c.38-.87,1.09-1.16,1.84-1.16Z"/><path class="cls-1" d="M124.77,56.94c0,.09-.01,.18-.01,.26h-4.99c.13,1.25,1.08,2.06,2.34,2.06,.9,0,1.59-.42,1.91-1l.49,.29c-.45,.75-1.31,1.25-2.4,1.25-1.7,0-2.9-1.21-2.9-2.88s1.17-2.88,2.86-2.88,2.72,1.39,2.72,2.9Zm-5-.28h4.43c-.12-1.34-1.07-2.09-2.15-2.09-1.26,0-2.17,.87-2.28,2.09Z"/><path class="cls-1" d="M131.47,51.96v7.72h-.55v-1.28c-.45,.85-1.3,1.4-2.37,1.4-1.58,0-2.86-1.25-2.86-2.88s1.28-2.88,2.86-2.88c1.07,0,1.92,.55,2.37,1.4v-3.48h.55Zm-.55,4.96c0-1.31-1.03-2.35-2.34-2.35s-2.34,1.04-2.34,2.35,1.03,2.35,2.34,2.35,2.34-1.04,2.34-2.35Z"/><path class="cls-1" d="M141.89,56.92c0,1.63-1.28,2.88-2.86,2.88-1.07,0-1.92-.55-2.37-1.4v1.28h-.55v-7.72h.55v3.48c.45-.85,1.3-1.4,2.37-1.4,1.58,0,2.86,1.25,2.86,2.88Zm-.55,0c0-1.31-1.03-2.35-2.34-2.35s-2.34,1.04-2.34,2.35,1.03,2.35,2.34,2.35,2.34-1.04,2.34-2.35Z"/><path class="cls-1" d="M147.63,54.17l-2.38,6.02c-.42,1.06-1.23,1.77-2.18,1.7v-.52c.74,.07,1.3-.48,1.64-1.29l.12-.3-2.54-5.61h.6l2.23,4.91,1.92-4.91h.6Z"/></g><path class="cls-1" d="M165.32,50.66c-1.47-1.47-3.45-2.29-5.52-2.29-1.55,0-3.06,.46-4.34,1.32-1.29,.86-2.29,2.08-2.88,3.51-.59,1.43-.75,3-.44,4.52,.3,1.52,1.05,2.91,2.14,4,1.09,1.09,2.49,1.84,4,2.14,1.52,.3,3.09,.15,4.52-.44,1.43-.59,2.65-1.59,3.51-2.88,.86-1.29,1.32-2.8,1.32-4.34,0-2.07-.83-4.06-2.29-5.52Zm-5.93,12.52c-1.78-.1-3.46-.89-4.69-2.19-1.23-1.3-1.91-3.02-1.91-4.81,0-1.79,.69-3.51,1.91-4.81,1.23-1.3,2.9-2.08,4.69-2.19v2.65c-1.08,.1-2.09,.6-2.82,1.4-.73,.8-1.14,1.85-1.14,2.94s.41,2.14,1.14,2.94c.73,.8,1.74,1.3,2.82,1.4v2.65Zm.4-3.44c-.7,0-1.39-.21-1.97-.6-.58-.39-1.04-.95-1.31-1.59-.27-.65-.34-1.36-.2-2.05,.14-.69,.48-1.32,.97-1.82,.5-.5,1.13-.84,1.82-.97,.69-.14,1.4-.07,2.05,.2,.65,.27,1.2,.72,1.59,1.31s.6,1.27,.6,1.97c0,.94-.38,1.85-1.04,2.51-.67,.67-1.57,1.04-2.51,1.04Zm5.09,1.25c-1.23,1.3-2.9,2.08-4.69,2.19v-2.65c1.08-.1,2.09-.6,2.82-1.4,.73-.8,1.14-1.85,1.14-2.94s-.41-2.14-1.14-2.94c-.73-.8-1.74-1.3-2.82-1.4v-2.65c1.78,.1,3.46,.89,4.69,2.19,1.23,1.3,1.91,3.02,1.91,4.81s-.68,3.51-1.91,4.81Zm37.12-7.89c-.74-.73-1.66-1.1-2.75-1.1-1.35,0-2.6,.72-3.26,1.9-.33,.59-.51,1.25-.5,1.93,0,1.04,.37,1.93,1.11,2.67,.74,.73,1.65,1.1,2.72,1.1s1.96-.37,2.7-1.11c.74-.74,1.11-1.64,1.11-2.7,0-1.07-.37-1.97-1.11-2.7Zm-.04,4.27c-.27,.47-.65,.85-1.12,1.12-.48,.27-1.01,.41-1.56,.41-.84,0-1.56-.3-2.16-.89-.6-.59-.89-1.32-.89-2.18,0-.58,.13-1.11,.4-1.58,.55-.95,1.55-1.54,2.65-1.55,.54,0,1.08,.14,1.55,.42,.47,.27,.86,.65,1.13,1.12,.27,.46,.4,.98,.4,1.56s-.13,1.1-.4,1.58Zm7.95,0v.02c0,.61-.25,1.16-.72,1.56-.46,.41-1.1,.61-1.84,.61-.55,0-1.06-.1-1.54-.31-.46-.2-.88-.5-1.27-.88l.53-.51c.64,.64,1.41,.98,2.28,.98,1.08,0,1.82-.58,1.82-1.44v-.02c0-.37-.11-.63-.36-.84-.29-.24-.81-.45-1.58-.61-.85-.18-1.41-.39-1.78-.69-.39-.31-.58-.73-.58-1.27v-.02c0-.26,.05-.51,.17-.74,.11-.23,.26-.44,.46-.61,.42-.35,.99-.55,1.61-.55,.42,0,.84,.08,1.25,.23,.37,.15,.72,.34,1.05,.61l-.46,.56c-.57-.45-1.19-.68-1.84-.68-.44,0-.84,.14-1.12,.37-.25,.22-.39,.5-.39,.8v.02c0,.32,.08,.52,.31,.7,.27,.22,.75,.39,1.48,.55,.89,.2,1.49,.44,1.89,.77,.41,.34,.61,.8,.61,1.39Zm-16.62-3.65c-.4-.61-.94-1.03-1.65-1.28-.49-.18-1.28-.26-2.36-.26h-1.5v7.24h2.31c.9,0,1.61-.13,2.11-.39,.5-.26,.91-.67,1.22-1.22,.31-.55,.47-1.19,.47-1.92,0-.84-.2-1.56-.59-2.17Zm-.61,3.87c-.31,.46-.74,.78-1.29,.96-.39,.12-1.08,.19-2.08,.19h-.84v-5.85h.51c1.04,0,1.79,.07,2.24,.21,.6,.18,1.08,.52,1.41,1.02,.34,.49,.51,1.09,.51,1.79s-.16,1.23-.47,1.69Zm-20.64-3.35c-.27,.47-.41,.99-.41,1.58,0,.88,.3,1.62,.91,2.21,.61,.59,1.37,.89,2.29,.89,1.01,0,1.86-.4,2.54-1.19l.57,.43c-.36,.46-.82,.82-1.35,1.07-.54,.25-1.14,.38-1.81,.38-1.26,0-2.26-.42-3-1.26-.61-.71-.92-1.57-.92-2.58,0-1.06,.37-1.95,1.12-2.67,.74-.72,1.67-1.09,2.79-1.09,.68,0,1.29,.13,1.83,.4,.53,.26,.99,.64,1.34,1.13l-.57,.44c-.3-.4-.69-.72-1.13-.93-.45-.21-.95-.32-1.45-.32-.56,0-1.12,.14-1.61,.42-.48,.26-.87,.65-1.14,1.12Zm13.18-2.06h.7v4.36c0,1.69-1.37,3.05-3.05,3.05-1.69,0-3.05-1.37-3.05-3.05v-4.36h.7v4.36c0,1.3,1.05,2.35,2.35,2.35s2.35-1.05,2.35-2.35v-4.36Z"/></g></g></svg>