<?xml version="1.0" encoding="utf-8"?>
<!-- Generator: Adobe Illustrator 27.0.0, SVG Export Plug-In . SVG Version: 6.00 Build 0)  -->
<svg version="1.1" id="Layer_1" fill="currentColor" xmlns="http://www.w3.org/2000/svg" xmlns:xlink="http://www.w3.org/1999/xlink" x="0px" y="0px"
	 viewBox="0 0 378.8 104.9" style="enable-background:new 0 0 378.8 104.9;" xml:space="preserve">
<g>
	<path class="st0" d="M52.5,0C42.1,0,31.9,3.1,23.3,8.8C14.7,14.6,8,22.8,4,32.4s-5,20.1-3,30.3c2,10.2,7,19.5,14.4,26.9
		c7.3,7.3,16.7,12.3,26.8,14.4c10.2,2,20.7,1,30.3-3s17.8-10.7,23.5-19.3c5.8-8.6,8.8-18.8,8.8-29.1c0-13.9-5.6-27.2-15.4-37.1
		C79.7,5.6,66.4,0,52.5,0L52.5,0z M52.5,76.3c-4.7,0-9.3-1.4-13.2-4s-7-6.3-8.8-10.7c-1.8-4.4-2.3-9.1-1.4-13.8s3.2-8.9,6.5-12.2
		c3.3-3.3,7.6-5.6,12.2-6.5c4.6-0.9,9.4-0.4,13.8,1.4s8.1,4.9,10.7,8.8c2.6,3.9,4,8.5,4,13.2c0,6.3-2.5,12.4-7,16.8
		S58.8,76.3,52.5,76.3L52.5,76.3z M5.5,52.4c0-12,4.6-23.5,12.8-32.2c8.2-8.7,19.5-14,31.4-14.7v17.8c-7.3,0.7-14,4-18.9,9.4
		c-4.9,5.4-7.6,12.4-7.6,19.7s2.7,14.3,7.6,19.7c4.9,5.4,11.7,8.8,18.9,9.4v17.8c-12-0.7-23.2-6-31.4-14.7S5.5,64.4,5.5,52.4
		L5.5,52.4z M55.2,99.4V81.6c7.3-0.7,14-4,18.9-9.4c4.9-5.4,7.6-12.4,7.6-19.7S79,38.1,74.1,32.7S62.4,24,55.2,23.3V5.5
		c12,0.7,23.2,5.9,31.4,14.7c8.2,8.7,12.8,20.2,12.8,32.2S94.8,76,86.6,84.7S67.1,98.6,55.2,99.4L55.2,99.4z" fill="currentColor"/>
	<path class="st0" d="M378.8,18.4c0,2-1.6,3.6-3.6,3.6s-3.6-1.6-3.6-3.6s1.6-3.5,3.6-3.5S378.8,16.4,378.8,18.4z M372.4,18.4
		c0,1.6,1.2,2.8,2.8,2.8s2.7-1.2,2.7-2.8s-1.1-2.8-2.7-2.8S372.4,16.8,372.4,18.4L372.4,18.4z M374.6,20.2h-0.8v-3.5
		c0.3-0.1,0.8-0.1,1.4-0.1c0.7,0,1,0.1,1.2,0.3c0.2,0.1,0.3,0.4,0.3,0.8c0,0.4-0.3,0.7-0.7,0.8v0c0.3,0.1,0.5,0.4,0.6,0.9
		c0.1,0.5,0.2,0.8,0.3,0.9H376c-0.1-0.1-0.2-0.4-0.3-0.9c-0.1-0.4-0.3-0.6-0.7-0.6h-0.4L374.6,20.2L374.6,20.2z M374.6,18.2h0.4
		c0.5,0,0.8-0.1,0.8-0.5c0-0.3-0.2-0.5-0.8-0.5c-0.2,0-0.4,0-0.5,0L374.6,18.2L374.6,18.2z" fill="currentColor"/>
	<path class="st0" d="M199,89.9l-3.9-11.2H195c0.1,1.7,0.2,3.2,0.2,4.7v6.5h-2V76.4h3.1l3.7,10.7h0.1l3.8-10.7h3.1v13.4h-2.1v-6.6
		c0-0.7,0-1.5,0-2.6c0-1.1,0.1-1.7,0.1-2H205l-4,11.2L199,89.9L199,89.9z" fill="currentColor"/>
	<path class="st0" d="M222,89.9l-1.3-3.7h-5.1l-1.3,3.7h-2.3l5-13.5h2.4l5,13.5H222L222,89.9z M220.1,84.2l-1.3-3.6
		c-0.1-0.2-0.2-0.6-0.4-1.2s-0.3-0.9-0.3-1.2c-0.2,0.8-0.4,1.6-0.7,2.5l-1.2,3.5H220.1L220.1,84.2z" fill="currentColor"/>
	<path class="st0" d="M231.5,84.5v5.4h-2.2V76.4h3.8c1.7,0,3,0.3,3.8,1s1.2,1.6,1.2,2.9c0,1.7-0.9,2.9-2.6,3.6l3.8,5.9h-2.5
		l-3.2-5.4H231.5L231.5,84.5z M231.5,82.7h1.5c1,0,1.8-0.2,2.2-0.6s0.7-0.9,0.7-1.7s-0.2-1.3-0.7-1.6c-0.5-0.3-1.2-0.5-2.2-0.5h-1.5
		V82.7z" fill="currentColor"/>
	<path class="st0" d="M254.8,89.9h-2.5l-4.2-6.1l-1.3,1.1v5h-2.2V76.4h2.2v6.4c0.6-0.7,1.2-1.4,1.8-2.1l3.6-4.3h2.5
		c-2.3,2.8-4,4.7-5,5.9L254.8,89.9L254.8,89.9z" fill="currentColor"/>
	<path class="st0" d="M267.3,89.9h-7.6V76.4h7.6v1.9h-5.4v3.6h5.1v1.8h-5.1V88h5.4V89.9L267.3,89.9z" fill="currentColor"/>
	<path class="st0" d="M278.1,89.9h-2.2V78.3h-4v-1.9H282v1.9h-4L278.1,89.9L278.1,89.9z" fill="currentColor"/>
	<path class="st0" d="M295,86.2c0,1.2-0.4,2.1-1.3,2.8c-0.9,0.7-2,1-3.6,1s-2.8-0.2-3.7-0.7v-2.1c0.6,0.3,1.3,0.5,2,0.7
		c0.7,0.2,1.3,0.2,1.9,0.2c0.9,0,1.5-0.2,1.9-0.5s0.6-0.8,0.6-1.3c0-0.5-0.2-0.9-0.6-1.3s-1.2-0.8-2.4-1.2c-1.2-0.5-2.1-1.1-2.6-1.7
		s-0.8-1.4-0.8-2.3c0-1.1,0.4-2,1.2-2.6c0.8-0.6,1.9-1,3.2-1s2.6,0.3,3.8,0.8l-0.7,1.8c-1.2-0.5-2.3-0.8-3.2-0.8
		c-0.7,0-1.2,0.1-1.6,0.5s-0.5,0.7-0.5,1.2c0,0.4,0.1,0.6,0.2,0.9c0.1,0.2,0.4,0.5,0.7,0.7s0.9,0.5,1.8,0.9c1,0.4,1.7,0.8,2.2,1.1
		s0.8,0.8,1,1.2C294.9,85.1,295,85.6,295,86.2L295,86.2z" fill="currentColor"/>
	<path class="st0" d="M164.7,57.5c-4.4,4.3-10.6,6.9-17.4,6.9C134.5,64.4,124,53.9,124,41s10.5-23.3,23.3-23.3
		c6.4,0,12.2,2.6,16.5,6.8l-3.2,3.2c-3.4-3.4-8.1-5.6-13.4-5.6c-10.3,0-18.8,8.4-18.8,18.8s8.5,18.8,18.8,18.8
		c5.6,0,10.5-2.1,14.2-5.4L164.7,57.5L164.7,57.5z" fill="currentColor"/>
	<path class="st0" d="M212.2,18.5v27.9c0,9.9-8.1,18.1-18.1,18.1s-18.1-8.1-18.1-18.1V18.5h4.5v27.9c0,7.5,6.1,13.5,13.5,13.5
		c7.5,0,13.5-6.1,13.5-13.5V18.5H212.2z" fill="currentColor"/>
	<path class="st0" d="M266.3,41c0,12.4-10.2,22.6-22.6,22.6h-16.1V18.5h16.1C256.1,18.5,266.3,28.7,266.3,41L266.3,41z M261.8,41
		c0-9.9-8.1-18.1-18-18.1h-11.6v36.1h11.6C253.7,59.1,261.8,51,261.8,41L261.8,41z" fill="currentColor"/>
	<path class="st0" d="M323.4,41c0,12.8-10.5,23.3-23.3,23.3S276.7,53.9,276.7,41s10.5-23.3,23.3-23.3S323.4,28.2,323.4,41z
		 M318.9,41c0-10.4-8.5-18.8-18.8-18.8s-18.8,8.4-18.8,18.8s8.4,18.8,18.8,18.8S318.9,51.4,318.9,41L318.9,41z" fill="currentColor"/>
	<path class="st0" d="M365.3,50.5v0.1c0,3.8-1.6,7.2-4.4,9.6c-2.9,2.5-6.8,3.8-11.4,3.8c-3.4,0-6.6-0.6-9.5-1.9
		c-2.9-1.2-5.5-3.1-7.9-5.5l3.2-3.1c4,4,8.7,6,14.1,6c6.7,0,11.2-3.6,11.2-8.9v-0.1c0-2.3-0.6-3.9-2.2-5.2c-1.8-1.5-5-2.8-9.8-3.8
		c-5.3-1.1-8.7-2.4-11-4.2c-2.4-1.9-3.6-4.5-3.6-7.8v-0.1c0-1.6,0.3-3.1,1-4.6c0.6-1.4,1.6-2.7,2.9-3.8c2.6-2.2,6.1-3.4,10-3.4
		c2.6,0,5.2,0.5,7.7,1.4c2.3,0.9,4.4,2.1,6.5,3.8l-2.9,3.5c-3.5-2.8-7.4-4.2-11.4-4.2c-2.7,0-5.2,0.8-6.9,2.3
		c-1.6,1.4-2.4,3.1-2.4,4.9v0.1c0,2,0.5,3.2,1.9,4.3c1.7,1.4,4.6,2.4,9.2,3.4c5.5,1.2,9.2,2.7,11.7,4.8
		C364.1,44,365.3,46.8,365.3,50.5L365.3,50.5z" fill="currentColor"/>
</g>
</svg>
