<svg width="24" height="24" viewBox="0 0 24 24" fill="currentColor" xmlns="http://www.w3.org/2000/svg">
<path fill-rule="evenodd" clip-rule="evenodd" d="M18.2929 13.2929C18.4804 13.1054 18.7348 13 19 13C19.2652 13 19.5196 13.1054 19.7071 13.2929C19.8946 13.4804 20 13.7348 20 14V19C20 19.2652 19.8946 19.5196 19.7071 19.7071C19.5196 19.8946 19.2652 20 19 20H5C4.73478 20 4.48043 19.8946 4.29289 19.7071C4.10536 19.5196 4 19.2652 4 19V5C4 4.73478 4.10536 4.48043 4.29289 4.29289C4.48043 4.10536 4.73478 4 5 4H10C10.2652 4 10.5196 4.10536 10.7071 4.29289C10.8946 4.48043 11 4.73478 11 5C11 5.26522 10.8946 5.51957 10.7071 5.70711C10.5196 5.89464 10.2652 6 10 6H6V18H18V14C18 13.7348 18.1054 13.4804 18.2929 13.2929ZM19 4C19.1312 4.00013 19.261 4.0263 19.382 4.077C19.6269 4.17849 19.8215 4.37308 19.923 4.618C19.9732 4.73913 19.9994 4.86888 20 5V10C20 10.2652 19.8947 10.5196 19.7071 10.7071C19.5196 10.8946 19.2652 11 19 11C18.7348 11 18.4804 10.8946 18.2929 10.7071C18.1054 10.5196 18 10.2652 18 10V7.414L13.707 11.707C13.6148 11.8025 13.5044 11.8787 13.3824 11.9311C13.2604 11.9835 13.1292 12.0111 12.9964 12.0123C12.8636 12.0134 12.732 11.9881 12.6091 11.9378C12.4862 11.8875 12.3745 11.8133 12.2806 11.7194C12.1867 11.6255 12.1125 11.5139 12.0622 11.391C12.0119 11.2681 11.9866 11.1364 11.9878 11.0036C11.9889 10.8708 12.0165 10.7396 12.0689 10.6176C12.1213 10.4956 12.1975 10.3852 12.293 10.293L16.586 6H14C13.7348 6 13.4805 5.89464 13.2929 5.70711C13.1054 5.51957 13 5.26522 13 5C13 4.73478 13.1054 4.48043 13.2929 4.29289C13.4805 4.10536 13.7348 4 14 4H19Z" fill="currentColor"/>
</svg>
