<svg width="136" height="32" viewBox="0 0 136 32" fill="currentColor" xmlns="http://www.w3.org/2000/svg">
<g clip-path="url(#clip0_705_2051)">
<path d="M116.887 10.5421C115.905 9.58022 114.717 8.85474 113.412 8.42076C112.108 7.98677 110.722 7.85568 109.36 8.03747C107.997 8.21926 106.694 8.70915 105.549 9.46991C104.405 10.2307 103.448 11.2423 102.753 12.428C101.969 13.8112 101.562 15.3757 101.571 16.9655C101.55 18.1323 101.77 19.291 102.217 20.369C102.664 21.447 103.329 22.4211 104.17 23.2305C105.003 24.073 105.999 24.7371 107.097 25.1825C108.195 25.6278 109.373 25.845 110.557 25.8208C112.325 25.8132 114.05 25.2836 115.518 24.2985C116.985 23.3134 118.129 21.9167 118.805 20.2838C119.481 18.6509 119.66 16.8546 119.319 15.1204C118.978 13.3863 118.132 11.7916 116.888 10.5365L116.887 10.5421ZM116.79 20.5796C116.167 21.6764 115.258 22.5829 114.159 23.2018C113.043 23.8408 111.778 24.1729 110.492 24.1642C109.547 24.1671 108.611 23.9825 107.738 23.621C106.865 23.2595 106.072 22.7284 105.406 22.0584C104.739 21.3884 104.212 20.5928 103.856 19.7178C103.499 18.8428 103.32 17.9057 103.328 16.9607C103.31 15.6605 103.637 14.3787 104.275 13.2455C104.743 12.4185 105.371 11.6928 106.122 11.1109C106.873 10.529 107.732 10.1024 108.65 9.85601C109.568 9.60964 110.526 9.54844 111.467 9.67594C112.409 9.80344 113.316 10.1171 114.135 10.5986C115.247 11.2228 116.168 12.1364 116.803 13.2424C117.437 14.3484 117.76 15.6056 117.737 16.8803C117.752 18.1755 117.425 19.4518 116.79 20.5804V20.5796ZM135.466 20.5796V20.629C135.473 21.3254 135.326 22.0148 135.036 22.6478C134.745 23.2809 134.319 23.8419 133.786 24.2908C132.568 25.281 131.031 25.7931 129.463 25.7309C128.222 25.7407 126.994 25.4912 125.855 24.9985C124.737 24.5018 123.723 23.7979 122.866 22.924L124.101 21.7299C124.792 22.4573 125.623 23.036 126.545 23.4305C127.467 23.825 128.46 24.027 129.463 24.0241C132.01 24.0241 133.737 22.6573 133.737 20.6321V20.5828C133.766 20.21 133.705 19.8356 133.559 19.4914C133.412 19.1472 133.186 18.8433 132.897 18.6054C131.782 17.8604 130.517 17.3688 129.191 17.1653C127.696 16.9509 126.268 16.4003 125.016 15.5549C124.569 15.2022 124.213 14.748 123.977 14.2301C123.74 13.7122 123.631 13.1455 123.657 12.5768V12.5283C123.651 11.9273 123.787 11.3333 124.055 10.7953C124.314 10.245 124.684 9.75464 125.143 9.35519C126.212 8.4935 127.55 8.03555 128.923 8.0616C129.927 8.07203 130.921 8.25377 131.863 8.59895C132.754 8.95102 133.586 9.4366 134.331 10.039L133.244 11.3565C132.027 10.3484 130.5 9.78834 128.92 9.76993C127.97 9.73991 127.041 10.0505 126.301 10.6456C126.02 10.873 125.793 11.1593 125.635 11.4842C125.477 11.8091 125.392 12.1647 125.387 12.5259V12.5745C125.358 12.8855 125.409 13.1987 125.534 13.4848C125.66 13.7709 125.855 14.0205 126.103 14.2103C127.158 14.8873 128.347 15.3286 129.588 15.5039C131.191 15.7515 132.713 16.37 134.035 17.3102C134.509 17.7075 134.886 18.2093 135.134 18.7764C135.383 19.3435 135.497 19.9604 135.467 20.5788L135.466 20.5796ZM96.4392 12.01C95.528 10.5985 94.1632 9.53941 92.5696 9.00733C90.7673 8.51385 88.8988 8.3062 87.0322 8.39197H83.5064V25.3989H88.9197C90.6179 25.484 92.3123 25.1676 93.8655 24.4755C95.0799 23.8203 96.0762 22.8241 96.7314 21.6097C97.4865 20.2318 97.8662 18.6796 97.8323 17.1088C97.8817 15.3089 97.3969 13.5347 96.4392 12.01ZM95.0063 21.101C94.2872 22.1753 93.221 22.9701 91.9861 23.3523C90.3833 23.7152 88.7392 23.8619 87.0975 23.7885H85.1304V10.0565H86.3365C88.1042 9.98533 89.8736 10.1489 91.5984 10.5429C92.9515 10.9234 94.127 11.7691 94.9179 12.9311C95.7368 14.1761 96.1523 15.6431 96.108 17.1327C96.1498 18.5352 95.766 19.9176 95.0071 21.0978L95.0063 21.101ZM46.5264 13.2408C45.8805 14.3685 45.5505 15.6494 45.5711 16.9488C45.5463 17.9147 45.7237 18.8751 46.0918 19.7685C46.4599 20.6619 47.0105 21.4685 47.7085 22.1367C48.4206 22.8262 49.264 23.3656 50.1885 23.7231C51.113 24.0805 52.0999 24.2487 53.0907 24.2176C54.2336 24.2332 55.3651 23.9892 56.4 23.5039C57.4349 23.0187 58.3461 22.3049 59.0651 21.4163L60.4088 22.436C59.5663 23.5115 58.4782 24.3692 57.2357 24.9372C55.9012 25.5404 54.45 25.8416 52.9856 25.8193C51.6643 25.8821 50.3456 25.6478 49.1268 25.1336C47.908 24.6195 46.82 23.8386 45.9429 22.8484C44.4992 21.1664 43.7295 19.0095 43.7823 16.7935C43.7573 15.6215 43.9776 14.4572 44.4292 13.3754C44.8808 12.2936 45.5536 11.3182 46.4046 10.5119C47.2713 9.67015 48.2983 9.01099 49.4245 8.57342C50.5507 8.13585 51.7532 7.92876 52.9609 7.96447C54.4469 7.94325 55.9179 8.2647 57.2596 8.90384C58.5117 9.51282 59.5935 10.4221 60.4088 11.5507L59.0651 12.5784C58.3633 11.6469 57.4508 10.8951 56.4023 10.3845C55.3346 9.88056 54.1662 9.6263 52.9856 9.64098C51.6642 9.62996 50.3632 9.96741 49.2138 10.6193C48.098 11.2334 47.1693 12.1382 46.5264 13.2376V13.2408ZM77.4731 8.39197H79.1241V18.6173C79.1241 20.5194 78.3685 22.3435 77.0236 23.6885C75.6786 25.0334 73.8545 25.789 71.9525 25.789C70.0504 25.789 68.2263 25.0334 66.8813 23.6885C65.5364 22.3435 64.7808 20.5194 64.7808 18.6173V8.38879H66.4238V18.6173C66.4238 20.0825 67.0059 21.4878 68.042 22.5238C69.0781 23.5599 70.4832 24.142 71.9485 24.142C73.4137 24.142 74.8189 23.5599 75.855 22.5238C76.8911 21.4878 77.4731 20.0825 77.4731 18.6173V8.39197Z" fill="currentColor"/>
</g>
<g clip-path="url(#clip1_705_2051)">
<path d="M27.3093 4.69176C24.6922 2.07935 21.2504 0.455102 17.5701 0.0957167C13.8898 -0.263668 10.1988 0.664034 7.12575 2.7208C4.05272 4.77756 1.78779 7.83616 0.716808 11.3755C-0.354175 14.9149 -0.164967 18.7161 1.2522 22.1316C2.66937 25.5471 5.22682 28.3657 8.48891 30.1071C11.751 31.8485 15.5159 32.4051 19.1423 31.682C22.7687 30.9589 26.0323 29.0009 28.377 26.1414C30.7218 23.282 32.0026 19.6982 32.0015 16.0003C31.9966 11.7581 30.3092 7.69115 27.3093 4.69176ZM15.1724 30.3135C11.5274 30.0905 8.10464 28.4854 5.60244 25.8254C3.10024 23.1655 1.70707 19.6511 1.70707 15.9991C1.70707 12.3472 3.10024 8.8328 5.60244 6.17283C8.10464 3.51286 11.5274 1.90769 15.1724 1.68476V7.11112C12.9569 7.31616 10.8979 8.34128 9.39883 9.98549C7.8998 11.6297 7.06886 13.7745 7.06886 15.9995C7.06886 18.2245 7.8998 20.3693 9.39883 22.0135C10.8979 23.6577 12.9569 24.6828 15.1724 24.8879V30.3135ZM16.0003 23.2724C14.3156 23.2739 12.6825 22.691 11.3794 21.6232C10.0764 20.5554 9.1839 19.0688 8.85419 17.4166C8.52448 15.7645 8.77795 14.0491 9.57136 12.5629C10.3648 11.0767 11.649 9.91172 13.2052 9.26641C14.7614 8.62111 16.4932 8.53547 18.1055 9.02412C19.7178 9.51276 21.1107 10.5454 22.0468 11.9461C22.983 13.3468 23.4044 15.0288 23.2393 16.7054C23.0741 18.382 22.3327 19.9495 21.1413 21.1406C19.7783 22.5046 17.9293 23.2714 16.0011 23.2724H16.0003ZM26.4218 25.8367C23.9126 28.4977 20.4816 30.0994 16.8305 30.3142V24.8879C19.046 24.6828 21.105 23.6577 22.6041 22.0135C24.1031 20.3693 24.9341 18.2245 24.9341 15.9995C24.9341 13.7745 24.1031 11.6297 22.6041 9.98549C21.105 8.34128 19.046 7.31616 16.8305 7.11112V1.68476C19.5538 1.84567 22.1747 2.78008 24.3857 4.37825C26.5966 5.97643 28.3058 8.17211 29.3128 10.7076C30.3197 13.2431 30.5826 16.0132 30.0705 18.6928C29.5584 21.3725 28.2927 23.8504 26.4218 25.8359V25.8367Z" fill="currentColor"/>
</g>
<defs>
<clipPath id="clip0_705_2051">
<rect width="91.6836" height="17.8659" fill="white" transform="translate(43.7832 7.96045)"/>
</clipPath>
<clipPath id="clip1_705_2051">
<rect width="32" height="32" fill="white"/>
</clipPath>
</defs>
</svg>
